<?xml version="1.0" encoding="utf-8"?>
<svg xmlns="http://www.w3.org/2000/svg" viewBox="0 0 500 500" xmlns:bx="https://boxy-svg.com" width="500px" height="500px"><defs><bx:export><bx:file format="svg"/></bx:export></defs><rect x="114.316" y="86.103" width="271.682" height="332.519" style="stroke: rgb(0, 0, 0); fill: rgb(255, 255, 255);"/><path d="M 248.447 9.469 C 383.378 9.469 492.763 118.854 492.763 253.785 C 492.763 388.716 383.378 498.101 248.447 498.101 C 113.516 498.101 4.131 388.716 4.131 253.785 C 4.131 118.854 113.516 9.469 248.447 9.469 Z M 327.599 176.243 C 313.652 167.154 303.595 152.603 300.452 135.649 C 299.759 131.925 299.407 128.146 299.4 124.358 L 254.898 124.358 L 254.826 302.706 C 254.079 322.679 237.639 338.709 217.493 338.709 C 211.444 338.71 205.486 337.235 200.137 334.411 C 188.228 328.146 180.08 315.666 180.08 301.303 C 180.08 280.676 196.865 263.891 217.485 263.891 C 221.336 263.891 225.031 264.528 228.523 265.618 L 228.523 220.188 C 224.907 219.694 221.232 219.39 217.485 219.39 C 172.322 219.389 135.578 256.132 135.578 301.303 C 135.578 329.015 149.42 353.538 170.549 368.368 C 183.852 377.712 200.039 383.211 217.493 383.211 C 262.657 383.211 299.4 346.468 299.4 301.303 L 299.4 210.863 C 316.854 223.388 338.241 230.77 361.317 230.77 L 361.317 186.268 C 348.889 186.268 337.312 182.574 327.599 176.243 Z" style="fill: rgb(184, 119, 58);"/></svg>